<svg id="visual" viewBox="0 0 1920 1080" width="1920" height="1080" xmlns="http://www.w3.org/2000/svg" xmlns:xlink="http://www.w3.org/1999/xlink" version="1.1"><rect x="0" y="0" width="1920" height="1080" fill="#fdffe8"></rect><path d="M0 860L45.7 855.5C91.3 851 182.7 842 274.2 871.2C365.7 900.3 457.3 967.7 548.8 1001.7C640.3 1035.7 731.7 1036.3 823 1019.7C914.3 1003 1005.7 969 1097 943.7C1188.3 918.3 1279.7 901.7 1371.2 911.8C1462.7 922 1554.3 959 1645.8 972.2C1737.3 985.3 1828.7 974.7 1874.3 969.3L1920 964L1920 1081L1874.3 1081C1828.7 1081 1737.3 1081 1645.8 1081C1554.3 1081 1462.7 1081 1371.2 1081C1279.7 1081 1188.3 1081 1097 1081C1005.7 1081 914.3 1081 823 1081C731.7 1081 640.3 1081 548.8 1081C457.3 1081 365.7 1081 274.2 1081C182.7 1081 91.3 1081 45.7 1081L0 1081Z" fill="#F7770F" stroke-linecap="round" stroke-linejoin="miter"></path></svg>