<svg id="visual" viewBox="0 0 1920 1080" width="1920" height="1080" xmlns="http://www.w3.org/2000/svg" xmlns:xlink="http://www.w3.org/1999/xlink" version="1.1"><rect x="0" y="0" width="1920" height="1080" fill="#fdffe8"></rect><defs><linearGradient id="grad1_0" x1="43.8%" y1="0%" x2="100%" y2="100%"><stop offset="14.444444444444446%" stop-color="#fdffe8" stop-opacity="1"></stop><stop offset="85.55555555555554%" stop-color="#fdffe8" stop-opacity="1"></stop></linearGradient></defs><defs><linearGradient id="grad2_0" x1="0%" y1="0%" x2="56.3%" y2="100%"><stop offset="14.444444444444446%" stop-color="#fdffe8" stop-opacity="1"></stop><stop offset="85.55555555555554%" stop-color="#fdffe8" stop-opacity="1"></stop></linearGradient></defs><g transform="translate(1920, 0)"><path d="M0 162C-16.9 138.2 -33.8 114.5 -60 103.9C-86.2 93.4 -121.7 96.1 -140.3 81C-158.8 65.9 -160.4 32.9 -162 0L0 0Z" fill="#F7770F"></path></g><g transform="translate(0, 1080)"><path d="M0 -162C34.6 -161.4 69.1 -160.7 81 -140.3C92.9 -119.9 82.1 -79.7 91.8 -53C101.5 -26.3 131.8 -13.2 162 0L0 0Z" fill="#F7770F"></path></g></svg>